<mxfile host="65bd71144e">
    <diagram id="FSRtpdnGLCoiSJ-O7zTI" name="Page-1">
        <mxGraphModel dx="604" dy="600" grid="1" gridSize="10" guides="1" tooltips="1" connect="1" arrows="1" fold="1" page="1" pageScale="1" pageWidth="827" pageHeight="1169" math="0" shadow="0">
            <root>
                <mxCell id="0"/>
                <mxCell id="1" parent="0"/>
                <mxCell id="H922bapUBbwME9SSsVi5-5" value="start" style="ellipse;whiteSpace=wrap;html=1;" vertex="1" parent="1">
                    <mxGeometry x="190" y="50" width="120" height="80" as="geometry"/>
                </mxCell>
                <mxCell id="H922bapUBbwME9SSsVi5-6" value="" style="edgeStyle=orthogonalEdgeStyle;rounded=0;orthogonalLoop=1;jettySize=auto;html=1;" edge="1" parent="1" source="H922bapUBbwME9SSsVi5-23">
                    <mxGeometry relative="1" as="geometry">
                        <mxPoint x="250" y="350" as="targetPoint"/>
                    </mxGeometry>
                </mxCell>
                <mxCell id="H922bapUBbwME9SSsVi5-7" value="" style="edgeStyle=orthogonalEdgeStyle;rounded=0;orthogonalLoop=1;jettySize=auto;html=1;startArrow=none;" edge="1" parent="1" source="H922bapUBbwME9SSsVi5-21" target="H922bapUBbwME9SSsVi5-11">
                    <mxGeometry relative="1" as="geometry"/>
                </mxCell>
                <mxCell id="H922bapUBbwME9SSsVi5-8" value="copy_ind = 0&lt;br&gt;cur_ind = 0&lt;br&gt;size=string.Lenght&lt;br&gt;outString[] = new string[size]" style="rounded=0;whiteSpace=wrap;html=1;" vertex="1" parent="1">
                    <mxGeometry x="60" y="290" width="380" height="80" as="geometry"/>
                </mxCell>
                <mxCell id="H922bapUBbwME9SSsVi5-9" value="" style="edgeStyle=orthogonalEdgeStyle;rounded=0;orthogonalLoop=1;jettySize=auto;html=1;" edge="1" parent="1" source="H922bapUBbwME9SSsVi5-11" target="H922bapUBbwME9SSsVi5-13">
                    <mxGeometry relative="1" as="geometry"/>
                </mxCell>
                <mxCell id="H922bapUBbwME9SSsVi5-10" style="edgeStyle=orthogonalEdgeStyle;rounded=0;orthogonalLoop=1;jettySize=auto;html=1;" edge="1" parent="1" source="H922bapUBbwME9SSsVi5-11" target="H922bapUBbwME9SSsVi5-16">
                    <mxGeometry relative="1" as="geometry"/>
                </mxCell>
                <mxCell id="H922bapUBbwME9SSsVi5-11" value="string[cur_ind].Length &amp;lt;= elementLength&lt;br&gt;&amp;nbsp;" style="rhombus;whiteSpace=wrap;html=1;rounded=0;" vertex="1" parent="1">
                    <mxGeometry x="137.5" y="510" width="280" height="140" as="geometry"/>
                </mxCell>
                <mxCell id="H922bapUBbwME9SSsVi5-12" style="edgeStyle=orthogonalEdgeStyle;rounded=0;orthogonalLoop=1;jettySize=auto;html=1;entryX=0;entryY=0.5;entryDx=0;entryDy=0;" edge="1" parent="1" source="H922bapUBbwME9SSsVi5-13" target="H922bapUBbwME9SSsVi5-21">
                    <mxGeometry relative="1" as="geometry">
                        <Array as="points">
                            <mxPoint x="90" y="720"/>
                            <mxPoint x="90" y="440"/>
                        </Array>
                    </mxGeometry>
                </mxCell>
                <mxCell id="H922bapUBbwME9SSsVi5-13" value="cur_ind++" style="whiteSpace=wrap;html=1;rounded=0;" vertex="1" parent="1">
                    <mxGeometry x="217.5" y="700" width="120" height="60" as="geometry"/>
                </mxCell>
                <mxCell id="H922bapUBbwME9SSsVi5-14" value="no" style="text;html=1;align=center;verticalAlign=middle;resizable=0;points=[];autosize=1;strokeColor=none;fillColor=none;" vertex="1" parent="1">
                    <mxGeometry x="227.5" y="660" width="40" height="30" as="geometry"/>
                </mxCell>
                <mxCell id="H922bapUBbwME9SSsVi5-15" style="edgeStyle=orthogonalEdgeStyle;rounded=0;orthogonalLoop=1;jettySize=auto;html=1;entryX=1;entryY=0.75;entryDx=0;entryDy=0;" edge="1" parent="1" source="H922bapUBbwME9SSsVi5-16" target="H922bapUBbwME9SSsVi5-13">
                    <mxGeometry relative="1" as="geometry">
                        <Array as="points">
                            <mxPoint x="480" y="745"/>
                        </Array>
                    </mxGeometry>
                </mxCell>
                <mxCell id="H922bapUBbwME9SSsVi5-16" value="outString[copy_ind] = string[cur_ind]&lt;br&gt;copy_ind++" style="whiteSpace=wrap;html=1;rounded=0;" vertex="1" parent="1">
                    <mxGeometry x="430" y="660" width="200" height="60" as="geometry"/>
                </mxCell>
                <mxCell id="H922bapUBbwME9SSsVi5-17" value="yes" style="text;html=1;align=center;verticalAlign=middle;resizable=0;points=[];autosize=1;strokeColor=none;fillColor=none;" vertex="1" parent="1">
                    <mxGeometry x="420" y="540" width="40" height="30" as="geometry"/>
                </mxCell>
                <mxCell id="H922bapUBbwME9SSsVi5-18" value="end" style="ellipse;whiteSpace=wrap;html=1;" vertex="1" parent="1">
                    <mxGeometry x="40" y="930" width="120" height="60" as="geometry"/>
                </mxCell>
                <mxCell id="H922bapUBbwME9SSsVi5-19" value="" style="edgeStyle=orthogonalEdgeStyle;rounded=0;orthogonalLoop=1;jettySize=auto;html=1;endArrow=none;" edge="1" parent="1" source="H922bapUBbwME9SSsVi5-8" target="H922bapUBbwME9SSsVi5-21">
                    <mxGeometry relative="1" as="geometry">
                        <mxPoint x="230" y="380" as="sourcePoint"/>
                        <mxPoint x="250" y="490" as="targetPoint"/>
                        <Array as="points">
                            <mxPoint x="278" y="380"/>
                            <mxPoint x="278" y="380"/>
                        </Array>
                    </mxGeometry>
                </mxCell>
                <mxCell id="H922bapUBbwME9SSsVi5-20" style="edgeStyle=orthogonalEdgeStyle;rounded=0;orthogonalLoop=1;jettySize=auto;html=1;entryX=1;entryY=0.75;entryDx=0;entryDy=0;" edge="1" parent="1" source="H922bapUBbwME9SSsVi5-21" target="H922bapUBbwME9SSsVi5-25">
                    <mxGeometry relative="1" as="geometry">
                        <mxPoint x="670" y="920" as="targetPoint"/>
                        <Array as="points">
                            <mxPoint x="700" y="440"/>
                            <mxPoint x="700" y="855"/>
                        </Array>
                    </mxGeometry>
                </mxCell>
                <mxCell id="H922bapUBbwME9SSsVi5-21" value="cur_ind &amp;lt; size" style="rhombus;whiteSpace=wrap;html=1;" vertex="1" parent="1">
                    <mxGeometry x="227.5" y="400" width="100" height="80" as="geometry"/>
                </mxCell>
                <mxCell id="H922bapUBbwME9SSsVi5-22" value="" style="edgeStyle=orthogonalEdgeStyle;rounded=0;orthogonalLoop=1;jettySize=auto;html=1;endArrow=none;" edge="1" parent="1" source="H922bapUBbwME9SSsVi5-5" target="H922bapUBbwME9SSsVi5-23">
                    <mxGeometry relative="1" as="geometry">
                        <mxPoint x="250" y="220" as="targetPoint"/>
                        <mxPoint x="250" y="130" as="sourcePoint"/>
                    </mxGeometry>
                </mxCell>
                <mxCell id="H922bapUBbwME9SSsVi5-23" value="&amp;nbsp;string[]&lt;br&gt;elementLength" style="shape=parallelogram;perimeter=parallelogramPerimeter;whiteSpace=wrap;html=1;fixedSize=1;" vertex="1" parent="1">
                    <mxGeometry x="170" y="160" width="160" height="100" as="geometry"/>
                </mxCell>
                <mxCell id="H922bapUBbwME9SSsVi5-24" value="" style="edgeStyle=orthogonalEdgeStyle;rounded=0;orthogonalLoop=1;jettySize=auto;html=1;" edge="1" parent="1" source="H922bapUBbwME9SSsVi5-25" target="H922bapUBbwME9SSsVi5-27">
                    <mxGeometry relative="1" as="geometry"/>
                </mxCell>
                <mxCell id="H922bapUBbwME9SSsVi5-25" value="Array.Resize( outString, copy_ind)" style="whiteSpace=wrap;html=1;" vertex="1" parent="1">
                    <mxGeometry x="292.5" y="810" width="260" height="60" as="geometry"/>
                </mxCell>
                <mxCell id="H922bapUBbwME9SSsVi5-26" value="" style="edgeStyle=orthogonalEdgeStyle;rounded=0;orthogonalLoop=1;jettySize=auto;html=1;entryX=0.5;entryY=0;entryDx=0;entryDy=0;" edge="1" parent="1" source="H922bapUBbwME9SSsVi5-27" target="H922bapUBbwME9SSsVi5-18">
                    <mxGeometry relative="1" as="geometry">
                        <mxPoint x="192.5" y="710" as="targetPoint"/>
                    </mxGeometry>
                </mxCell>
                <mxCell id="H922bapUBbwME9SSsVi5-27" value="outString[]" style="shape=document;whiteSpace=wrap;html=1;boundedLbl=1;" vertex="1" parent="1">
                    <mxGeometry x="120" y="800" width="120" height="80" as="geometry"/>
                </mxCell>
            </root>
        </mxGraphModel>
    </diagram>
</mxfile>